<svg width="32" height="32" viewBox="0 0 32 32" fill="none" xmlns="http://www.w3.org/2000/svg">
<circle cx="16" cy="16" r="16" fill="white"/>
<path d="M23.5833 12.5833H22.695L20.8533 7.51331C20.7009 7.09526 20.4239 6.73402 20.0597 6.47831C19.6955 6.22261 19.2617 6.08474 18.8167 6.08331H17.0833C16.4875 6.08331 16 6.57081 16 7.16665C16 7.76248 16.4875 8.24998 17.0833 8.24998H18.8167L20.3983 12.5833H15.1875L14.7975 11.5H14.895C15.4908 11.5 15.9783 11.0125 15.9783 10.4166C15.9783 9.82081 15.4908 9.33331 14.895 9.33331H11.6667C11.0708 9.33331 10.5833 9.82081 10.5833 10.4166C10.5833 11.0125 11.0708 11.5 11.6667 11.5H12.4792L14.4508 16.9166H13.725C13.2483 14.5008 11.2225 12.7133 8.6875 12.5941C5.65417 12.4425 3 14.9666 3 18C3 21.0333 5.38333 23.4166 8.41667 23.4166C11.0817 23.4166 13.2375 21.5858 13.725 19.0833H18.275C18.7517 21.4991 20.7775 23.2866 23.3125 23.4058C26.3458 23.5466 29 21.0333 29 17.9891C29 14.9666 26.6167 12.5833 23.5833 12.5833ZM9.5 19.0833H11.4717C11.0167 20.4158 9.73833 21.3366 8.2 21.2391C6.58583 21.1416 5.2425 19.7766 5.16667 18.1516C5.09083 16.2558 6.5425 14.75 8.41667 14.75C9.8575 14.75 11.0383 15.6491 11.4717 16.9166H9.5C8.90417 16.9166 8.41667 17.4041 8.41667 18C8.41667 18.5958 8.90417 19.0833 9.5 19.0833ZM18.275 16.9166H16.7583L15.9675 14.75H19.25C18.7733 15.3783 18.4267 16.1041 18.275 16.9166ZM23.4533 21.25C21.785 21.185 20.3767 19.7658 20.3333 18.0866C20.3117 17.0466 20.7558 16.1366 21.4708 15.53L22.1425 17.3716C22.3483 17.935 22.9658 18.2275 23.5292 18.0216C24.0925 17.8158 24.385 17.1983 24.1792 16.635L23.4967 14.7608L23.5075 14.75C23.9418 14.7352 24.3747 14.8085 24.7799 14.9656C25.1851 15.1228 25.5543 15.3604 25.8651 15.6641C26.1759 15.9678 26.422 16.3314 26.5884 16.7329C26.7548 17.1344 26.8381 17.5654 26.8333 18C26.8333 19.8633 25.3383 21.315 23.4533 21.25Z" fill="url(#paint0_linear_33_1451)"/>
<defs>
<linearGradient id="paint0_linear_33_1451" x1="16" y1="6.08331" x2="16" y2="23.4166" gradientUnits="userSpaceOnUse">
<stop stop-color="#FFB60D"/>
<stop offset="1" stop-color="#E59317"/>
</linearGradient>
</defs>
</svg>
