<svg width="18" height="12" viewBox="0 0 18 12" fill="none" xmlns="http://www.w3.org/2000/svg">
<path fill-rule="evenodd" clip-rule="evenodd" d="M11.2934 0.792893C11.6839 0.402369 12.317 0.402369 12.7076 0.792893L17.2076 5.29289C17.3951 5.48043 17.5005 5.73478 17.5005 6C17.5005 6.26522 17.3951 6.51957 17.2076 6.70711L12.7076 11.2071C12.317 11.5976 11.6839 11.5976 11.2934 11.2071C10.9028 10.8166 10.9028 10.1834 11.2934 9.79289L14.0863 7H1C0.447715 7 0 6.55228 0 6C0 5.44772 0.447715 5 1 5H14.0863L11.2934 2.20711C10.9028 1.81658 10.9028 1.18342 11.2934 0.792893Z" fill="#332200"/>
</svg>
